<svg version="1.1" id="Layer_1" xmlns="http://www.w3.org/2000/svg" xmlns:xlink="http://www.w3.org/1999/xlink" x="0px" y="0px" viewBox="0 0 600 600" enable-background="new 0 0 600 600" xml:space="preserve"><path id="color_x5F_2_5_" fill="#80BFC9" d="M230.641,270.134l-127.018-62.778v-32.202l127.018,62.779V270.134z M258.912,251.219    c-6.422,0-11.132,6.734-11.132,15.041c0,8.308,4.709,15.041,11.132,15.041c6.423,0,11.629-6.733,11.629-15.041    C270.54,257.953,265.334,251.219,258.912,251.219z M230.641,364.36l-127.018-62.779v32.202l127.018,62.778V364.36z M258.912,377.647    c-6.422,0-11.132,6.734-11.132,15.041c0,8.308,4.709,15.042,11.132,15.042c6.423,0,11.629-6.734,11.629-15.042    C270.54,384.381,265.334,377.647,258.912,377.647z M230.641,482.439l-127.018-62.779v32.202l127.018,62.779V482.439z     M258.912,495.726c-6.422,0-11.132,6.734-11.132,15.041c0,8.308,4.709,15.042,11.132,15.042c6.423,0,11.629-6.734,11.629-15.042    C270.54,502.459,265.334,495.726,258.912,495.726z"></path><path id="color_x5F_1_8_" fill="#E77925" d="M300.254,599.931c-17.295,1.193-48.239-13.552-48.493-13.678    c0,0-189.775-93.93-189.983-94.046c-23.875-13.279-29.332-33.677-28.81-44.206v-64.825c-0.112-3.864,0.062-23.87,14.929-33.283    c10.222-6.472,23.037-5.728,38.094,2.205l178.917,87.232c0.094,0.046,34.153,18.668,69.998,0.04c0,0,196.058-93.516,196.37-93.62    c1.437-0.874,5.832-4.348,5.832-14.145v-58.761c0-7.523-3.876-12.837-12.443-9.166L348.183,345.91    c-25.193,12.468-51.471,21.834-96.317,0.077c-0.037-0.018-0.075-0.037-0.112-0.055L73.062,257.371    c-4.735-2.177-40.109-19.765-40.109-59.11v-82.462c0-20.964,16.507-35.176,26.262-40.269c0.663-0.346,1.352-0.643,2.06-0.885    L252.328,9.079c26.896-12.105,68.342-12.105,95.237,0l191.052,65.566c0.483,0.166,25.624,8.047,28.208,30.012    c1.496,12.724-3.648,26.396-25.668,37.392c-7.652,4.126-126.389,67.964-176.548,84.683c-32.212,10.738-67.249,8.278-96.126-6.747    c-33.543-17.455-134.57-64.99-135.587-65.468c-7.45-3.505-10.65-12.386-7.145-19.837c3.504-7.451,12.386-10.651,19.836-7.145    c4.173,1.963,102.59,48.27,136.661,65.998c10.292,5.357,38.002,16.555,72.932,4.913c48.309-16.103,172.347-82.919,172.505-82.998    c5.998-2.969,6.064-10.17,0.474-12.868L337.199,37.048c-25.02-9.62-51.258-8.426-73.081-0.574    c-0.481,0.174-191.727,65.88-191.727,65.88c-2.383,1.529-9.62,6.732-9.62,13.444v82.462c0,21.522,21.778,31.583,22.706,32    c0.234,0.103,0.369,0.168,0.599,0.281l178.857,88.642c31.147,11.195,45.459,8.213,69.973,0.027c0,0,191.016-83.399,191.17-83.455    c23.854-8.746,40.85,5.256,40.85,26.239v66.032c0,24.421-14.416,37.331-23.34,41.332l-195.454,96.735    c-23.726,11.742-52.697,22.388-96.427-0.028c0,0-179.31-87.427-179.461-87.507c-4.521-2.402-9.47,0.72-9.47,8.274    c0,7.3,0.063,61.526,0.001,62.543c-0.599,9.855,5.827,12.432,13.207,16.609l188.616,93.35c31.735,13.417,50.447,10.021,70.309,0.194    l210.498-104.18c7.379-3.652,16.321-0.632,19.975,6.749c3.652,7.38,0.631,16.323-6.749,19.976L348.131,586.254    C335.048,592.727,318.478,599.93,300.254,599.931z"></path></svg>