<svg xmlns="http://www.w3.org/2000/svg" xmlns:xlink="http://www.w3.org/1999/xlink" viewBox="0 0 42 40"><path d="M 20.369 40.635 C 18.496 40.635 16.712 40.427 15.042 40.02 C 5.705 37.724 -1.114 27.732 0.151 18.205 C 1.444 8.459 10.774 0.09 20.158 0.263 C 22.911 -0.518 25.907 0.582 28.541 1.705 C 32.326 3.315 37.51 5.526 40.033 9.951 C 42.017 13.43 42.01 17.698 42.002 21.127 C 41.998 23.872 41.994 26.986 40.864 29.797 C 39.333 33.607 35.726 36.767 30.711 38.689 C 28.207 39.65 25.584 40.266 22.911 40.515 C 22.046 40.596 21.196 40.639 20.365 40.639 Z M 19.054 1.82 C 10.785 2.285 2.824 9.759 1.674 18.405 C 0.509 27.194 6.797 36.406 15.408 38.524 C 17.65 39.078 20.127 39.231 22.769 38.982 C 25.299 38.743 27.788 38.163 30.161 37.251 C 32.83 36.229 37.587 33.822 39.437 29.22 C 40.456 26.683 40.46 23.726 40.464 21.12 C 40.468 17.706 40.475 13.83 38.695 10.705 C 36.602 7.029 32.583 5.092 27.938 3.112 C 25.203 1.947 22.33 0.901 19.915 1.974 C 19.615 2.108 19.273 2.035 19.054 1.812 Z" fill="rgb(0,0,0)"></path><path d="M 20.669 8.525 C 20.25 8.525 19.907 8.19 19.9 7.771 C 19.861 5.699 19.769 3.596 19.619 1.532 C 19.588 1.109 19.907 0.74 20.33 0.709 C 20.757 0.682 21.123 0.997 21.154 1.42 C 21.307 3.515 21.403 5.645 21.438 7.744 C 21.446 8.167 21.107 8.521 20.684 8.529 L 20.669 8.529 Z" fill="rgb(0,0,0)"></path><path d="M 21.923 40.269 C 21.534 40.269 21.2 39.973 21.157 39.577 C 20.954 37.547 20.83 35.487 20.796 33.453 C 20.788 33.03 21.127 32.68 21.554 32.673 C 21.977 32.653 22.33 33.003 22.334 33.43 C 22.369 35.421 22.488 37.44 22.688 39.428 C 22.73 39.85 22.423 40.227 22 40.269 C 21.973 40.269 21.946 40.269 21.923 40.269 Z" fill="rgb(0,0,0)"></path><path d="M 1.524 22.185 C 1.12 22.185 0.782 21.869 0.759 21.462 C 0.732 21.039 1.059 20.674 1.482 20.651 L 3.501 20.531 C 4.912 20.451 6.37 20.362 7.831 20.631 C 8.251 20.708 8.524 21.112 8.447 21.527 C 8.37 21.942 7.97 22.219 7.551 22.142 C 6.27 21.904 4.909 21.985 3.589 22.062 L 1.574 22.181 C 1.574 22.181 1.543 22.181 1.528 22.181 Z" fill="rgb(0,0,0)"></path><path d="M 35.933 21.504 C 35.441 21.504 34.949 21.485 34.456 21.443 C 34.033 21.408 33.718 21.035 33.753 20.612 C 33.787 20.189 34.149 19.87 34.583 19.909 C 35.795 20.009 37.018 19.974 38.222 19.805 C 38.402 19.778 38.579 19.751 38.76 19.724 C 39.468 19.613 40.202 19.497 40.967 19.547 C 41.391 19.574 41.714 19.939 41.687 20.362 C 41.66 20.785 41.287 21.108 40.871 21.081 C 40.271 21.043 39.656 21.139 39.002 21.243 C 38.814 21.273 38.629 21.3 38.441 21.327 C 37.614 21.443 36.775 21.504 35.937 21.504 Z" fill="rgb(0,0,0)"></path><path d="M 23.407 22.431 C 23.226 22.431 23.05 22.369 22.903 22.242 C 21.396 20.931 19.8 19.697 18.15 18.575 C 17.8 18.336 17.708 17.856 17.946 17.506 C 18.185 17.156 18.665 17.064 19.015 17.302 C 20.711 18.459 22.361 19.728 23.911 21.081 C 24.23 21.362 24.265 21.846 23.984 22.165 C 23.83 22.338 23.619 22.431 23.403 22.431 Z" fill="rgb(0,0,0)"></path><path d="M 18.335 18.371 C 18.085 18.371 17.838 18.248 17.688 18.021 C 17.458 17.667 17.558 17.19 17.912 16.956 C 18.711 16.433 19.573 16.087 20.404 15.749 L 27.115 13.034 C 27.511 12.877 27.957 13.065 28.115 13.457 C 28.272 13.85 28.084 14.299 27.692 14.457 L 20.981 17.171 C 20.215 17.479 19.427 17.802 18.754 18.24 C 18.623 18.325 18.477 18.367 18.335 18.367 Z" fill="rgb(0,0,0)"></path><path d="M 23.288 22.688 C 23.18 22.688 23.069 22.665 22.965 22.615 C 22.58 22.434 22.411 21.981 22.592 21.593 C 23.13 20.435 23.803 19.343 24.453 18.286 C 25.472 16.633 26.438 15.068 26.903 13.307 C 27.011 12.896 27.43 12.65 27.842 12.762 C 28.253 12.869 28.499 13.292 28.388 13.7 C 27.865 15.683 26.795 17.417 25.761 19.094 C 25.134 20.112 24.484 21.166 23.984 22.238 C 23.853 22.519 23.576 22.684 23.288 22.684 Z" fill="rgb(0,0,0)"></path><path d="M 23.83 21.669 C 23.603 21.285 23.165 21.223 22.788 21.396 C 22.757 21.412 22.726 21.427 22.692 21.443 C 22.634 21.316 22.534 21.204 22.388 21.12 C 21.227 20.447 19.977 19.747 19.215 18.601 C 19.108 18.436 18.95 18.336 18.784 18.286 C 18.919 17.517 17.808 16.944 17.408 17.744 C 15.904 20.747 14.546 23.822 13.335 26.956 C 13.185 27.34 13.5 27.794 13.866 27.894 C 14.204 27.986 14.496 27.84 14.677 27.586 C 17.512 25.748 20.481 24.118 23.557 22.719 C 23.93 22.55 24.023 22.004 23.83 21.677 Z" fill="rgb(0,0,0)"></path></svg>