<svg xmlns="http://www.w3.org/2000/svg" xmlns:xlink="http://www.w3.org/1999/xlink" viewBox="0 0 80 78.717"><path d="M 57.079 10.65 L 53.647 15.609 L 57.413 27.88 L 61.897 23.843 Z" fill="rgb(239,213,90)"></path><path d="M 53.069 14.961 L 49.637 19.92 L 53.403 32.191 L 57.887 28.154 Z" fill="rgb(255,255,255)"></path><path d="M 56.68 29.287 L 53.473 33.905 L 56.978 45.319 L 61.165 41.559 Z" fill="rgb(11,182,119)"></path><path d="M 60.947 23.295 L 57.515 28.255 L 61.281 40.526 L 65.765 36.489 Z" fill="rgb(244,87,39)"></path><path d="M 65.302 37.42 L 61.952 41.515 L 64.982 51.202 L 69.27 47.809 Z" fill="rgb(244,87,39)"></path><path d="M 61.332 43.332 L 57.981 47.426 L 61.012 57.114 L 65.3 53.721 Z" fill="rgb(55,106,218)"></path><path d="M 20.136 18.662 L 17.447 23.42 L 27.689 21.446 L 29.532 16.515 Z" fill="rgb(255,255,255)"></path><path d="M 32.505 15.708 L 29.817 20.466 L 40.059 18.492 L 41.902 13.561 Z" fill="rgb(11,182,119)"></path><path d="M 28.741 22.369 L 26.052 27.127 L 36.295 25.153 L 38.137 20.222 Z" fill="rgb(239,213,90)"></path><path d="M 41.918 17.987 L 39.229 22.745 L 49.471 20.771 L 51.313 15.84 Z" fill="rgb(244,87,39)"></path><path d="M 45.888 12.076 L 43.199 16.834 L 53.441 14.86 L 55.284 9.929 Z" fill="rgb(55,106,218)"></path><path d="M 16.102 25.799 L 13.413 30.557 L 23.656 28.583 L 25.498 23.652 Z" fill="rgb(239,213,90)"></path><path d="M 12.338 32.46 L 24.233 29.232 L 27.319 40.479 L 15.423 43.707 Z" fill="rgb(11,182,119)"></path><path d="M 24.233 29.232 L 37.615 25.6 L 40.906 37.596 L 29.011 40.825 Z" fill="rgb(55,106,218)"></path><path d="M 36.872 25.802 L 50.254 22.17 L 53.34 33.416 L 41.444 36.645 Z" fill="rgb(55,106,218)"></path><path d="M 27.73 41.978 L 40.906 37.596 L 44.197 49.593 L 32.508 53.572 Z" fill="rgb(244,87,39)"></path><path d="M 40.906 37.596 L 54.289 33.964 L 57.58 45.961 L 45.684 49.19 Z" fill="rgb(239,213,90)"></path><path d="M 32.073 54.898 L 45.044 49.766 L 48.54 62.513 L 36.645 65.741 Z" fill="rgb(239,213,90)"></path><path d="M 45.044 49.766 L 58.426 46.134 L 61.717 58.131 L 49.822 61.359 Z" fill="rgb(255,255,255)"></path><path d="M 19.331 57.953 L 32.508 53.572 L 35.799 65.568 L 23.903 68.797 Z" fill="rgb(255,255,255)"></path><path d="M 15.835 45.207 L 29.217 41.575 L 32.302 52.822 L 20.407 56.05 Z" fill="rgb(244,87,39)"></path><path d="M 70.211 46.404 C 70.408 45.898 70.273 45.327 69.881 44.964 C 65.959 31.352 62.459 21.035 58.443 9.221 C 58.534 8.665 58.27 8.089 57.737 7.822 C 57.443 7.675 57.123 7.649 56.828 7.722 C 56.582 7.641 56.313 7.632 56.049 7.71 C 49.217 9.716 40.838 12.038 31.057 14.641 C 30.712 14.594 30.361 14.689 30.082 14.899 C 26.817 15.764 23.399 16.661 19.831 17.588 C 19.825 17.59 19.822 17.591 19.818 17.592 C 19.435 17.696 19.144 17.96 18.981 18.292 C 18.641 18.353 18.325 18.549 18.118 18.859 L 10.665 30.108 C 10.551 30.28 10.489 30.468 10.462 30.657 C 9.919 30.976 9.663 31.646 9.893 32.259 C 15.352 46.781 18.456 56.633 21.763 69.901 C 21.941 70.611 22.66 71.043 23.367 70.868 C 23.376 70.866 23.386 70.863 23.398 70.86 C 23.481 70.837 23.562 70.805 23.637 70.768 C 23.954 70.998 24.366 71.085 24.762 70.977 C 24.8 70.967 24.841 70.956 24.881 70.938 C 27.69 69.884 33.624 68.253 39.908 66.527 C 51.096 63.453 58.975 61.221 62.193 59.583 C 62.437 59.658 62.691 59.66 62.927 59.597 C 63.266 59.504 63.568 59.278 63.747 58.945 C 65.033 56.531 66.015 54.594 66.963 52.722 C 67.8 51.071 68.661 49.37 69.734 47.343 C 70.018 47.112 70.191 46.769 70.218 46.402 Z M 16.472 26.141 C 16.541 26.13 16.61 26.118 16.676 26.096 C 18.551 25.478 20.512 24.973 22.41 24.486 L 24.858 23.855 L 22.972 27.162 C 22.945 27.211 22.925 27.264 22.904 27.315 C 19.446 28.253 16.369 29.064 14.165 29.625 Z M 45.293 13.521 C 48.627 12.595 51.728 11.719 54.586 10.893 C 54.003 11.881 53.348 12.933 52.666 14 C 52.56 14.001 52.457 14.012 52.351 14.037 L 43.642 16.281 L 45.174 13.776 C 45.224 13.694 45.262 13.608 45.293 13.521 Z M 25.478 29.367 C 28.86 28.442 32.497 27.428 35.989 26.428 C 37.187 29.667 38.343 32.934 39.465 36.221 C 36.013 37.356 32.541 38.446 29.057 39.488 C 27.906 36.092 26.716 32.718 25.479 29.37 Z M 38.539 25.692 C 42.684 24.484 46.46 23.34 49.127 22.444 C 50.193 25.691 51.216 28.785 52.213 31.78 C 48.825 33.025 45.411 34.223 41.975 35.378 C 40.867 32.129 39.723 28.896 38.539 25.692 Z M 60.28 22.957 C 59.604 23.833 58.921 24.708 58.231 25.581 C 57.261 22.394 56.314 19.218 55.379 16.072 C 55.281 15.742 55.126 15.513 54.959 15.343 C 55.587 14.356 56.195 13.381 56.748 12.446 C 57.96 16.013 59.128 19.473 60.283 22.956 Z M 53.202 18.042 C 54.193 21.368 55.196 24.721 56.225 28.084 C 55.646 28.8 55.065 29.51 54.477 30.218 C 53.475 27.201 52.442 24.076 51.367 20.794 C 51.953 19.914 52.573 18.988 53.198 18.04 Z M 57.323 38.741 C 56.712 36.914 56.094 35.062 55.468 33.18 C 56.037 32.501 56.603 31.816 57.169 31.127 C 58.167 34.328 59.194 37.534 60.265 40.724 C 59.72 41.376 59.179 42.031 58.639 42.688 C 58.196 41.361 57.756 40.044 57.319 38.739 Z M 59.174 28.656 C 59.881 27.771 60.585 26.884 61.28 25.992 C 62.327 29.196 63.366 32.457 64.417 35.876 C 63.695 36.696 62.98 37.525 62.267 38.356 C 61.2 35.127 60.173 31.886 59.176 28.652 Z M 50.559 17.237 C 50.164 17.834 49.772 18.417 49.393 18.987 C 49.393 18.987 49.393 18.987 49.389 18.988 C 48.967 19.123 48.664 19.456 48.539 19.85 C 46.331 20.596 43.26 21.543 39.809 22.558 L 41.661 19.528 Z M 36.031 23.656 C 32.903 24.556 29.621 25.475 26.499 26.336 L 28.437 22.935 L 37.976 20.477 L 36.035 23.655 Z M 22.917 30.062 C 24.163 33.428 25.361 36.821 26.517 40.235 C 23.214 41.2 19.906 42.122 16.591 42.994 C 15.474 39.758 14.251 36.365 12.872 32.675 C 14.922 32.184 18.592 31.229 22.914 30.063 Z M 17.448 45.506 C 18.319 45.276 19.191 45.043 20.06 44.807 C 22.496 44.146 24.93 43.455 27.364 42.746 C 28.456 46.037 29.503 49.344 30.51 52.662 C 27.206 53.627 23.898 54.549 20.587 55.42 C 19.615 52.141 18.586 48.891 17.448 45.506 Z M 29.903 41.995 C 33.387 40.954 36.858 39.864 40.31 38.728 C 41.405 42.019 42.462 45.323 43.473 48.643 C 40.015 49.78 36.537 50.872 33.046 51.916 C 32.04 48.597 30.994 45.287 29.903 41.995 Z M 42.821 37.889 C 46.254 36.734 49.668 35.537 53.05 34.293 C 53.645 36.076 54.23 37.835 54.81 39.571 C 55.314 41.084 55.826 42.612 56.343 44.159 C 52.919 45.421 49.46 46.631 45.983 47.801 C 44.973 44.484 43.916 41.179 42.821 37.889 Z M 57.18 46.672 C 58.315 50.085 59.488 53.626 60.715 57.371 C 58.726 58.322 54.529 59.646 49.759 61.027 C 48.808 57.461 47.796 53.897 46.742 50.342 C 50.244 49.165 53.73 47.941 57.18 46.672 Z M 62.762 55.118 C 61.682 51.83 60.646 48.702 59.635 45.67 C 60.175 44.998 60.719 44.329 61.267 43.666 C 62.243 46.485 63.256 49.289 64.321 52.07 C 63.829 53.041 63.321 54.04 62.762 55.118 Z M 63.25 41.289 C 63.936 40.476 64.63 39.666 65.326 38.864 C 66.017 41.156 66.717 43.535 67.432 46.016 C 66.89 47.041 66.401 47.983 65.945 48.872 C 65.012 46.361 64.119 43.829 63.25 41.286 Z M 39.033 15.237 C 39.901 15.002 40.757 14.769 41.603 14.54 L 39.957 17.233 L 30.262 19.731 L 31.697 17.211 C 34.236 16.536 36.687 15.877 39.034 15.24 Z M 20.328 20.324 C 20.362 20.274 20.388 20.219 20.411 20.164 C 20.44 20.157 20.471 20.158 20.503 20.15 C 23.116 19.471 25.648 18.808 28.102 18.163 L 26.683 20.654 L 21.742 21.926 C 20.755 22.18 19.749 22.44 18.741 22.717 L 20.325 20.325 Z M 24.114 68.405 C 23.192 64.732 22.278 61.31 21.323 57.968 C 22.229 57.729 23.134 57.49 24.038 57.245 C 26.448 56.59 28.857 55.906 31.262 55.205 C 32.264 58.593 33.222 61.986 34.126 65.383 C 29.916 66.556 26.259 67.618 24.111 68.406 Z M 39.2 63.982 C 38.351 64.212 37.51 64.447 36.68 64.676 C 35.771 61.263 34.809 57.854 33.804 54.454 C 37.292 53.411 40.769 52.319 44.231 51.181 C 45.275 54.702 46.274 58.227 47.218 61.757 C 44.541 62.515 41.781 63.275 39.204 63.984 Z" fill="rgb(0,0,0)"></path></svg>