<svg xmlns="http://www.w3.org/2000/svg" width="32" height="32.683"><path d="M 0.925 32.096 C 0.671 32.096 0.427 31.99 0.247 31.801 C 0.021 31.561 -0.058 31.215 0.044 30.902 C 2.023 24.524 3.481 17.938 4.376 11.32 C 4.422 10.969 4.666 10.674 5.008 10.568 C 7.296 9.83 9.658 9.064 11.776 7.925 C 14.931 6.228 17.556 3.696 19.37 0.611 C 19.577 0.256 19.992 0.094 20.371 0.177 C 20.767 -0.113 21.326 -0.04 21.635 0.348 C 24.67 4.143 27.974 7.782 31.457 11.163 C 31.655 11.356 31.757 11.624 31.734 11.896 C 31.711 12.168 31.568 12.417 31.346 12.579 C 28.232 14.774 25.362 17.001 24.5 20.147 C 24.348 20.705 24.246 21.309 24.14 21.95 C 23.849 23.698 23.517 25.681 21.898 26.871 C 21.053 27.489 20.034 27.724 19.217 27.909 L 1.132 32.073 C 1.063 32.087 0.994 32.096 0.925 32.096 Z M 6.124 12.141 C 5.28 18.136 3.988 24.104 2.267 29.915 L 18.802 26.11 C 19.522 25.944 20.269 25.773 20.804 25.381 C 21.819 24.634 22.064 23.181 22.318 21.646 C 22.428 20.986 22.539 20.308 22.719 19.658 C 23.651 16.259 26.34 13.911 29.381 11.712 C 26.304 8.668 23.369 5.426 20.647 2.063 C 18.678 5.209 15.923 7.787 12.652 9.553 C 10.562 10.679 8.32 11.44 6.129 12.15 Z" fill="rgb(0,0,0)"></path><path d="M 24.527 17.038 C 24.283 17.038 24.043 16.941 23.863 16.752 L 21.086 13.851 C 20.689 13.436 20.241 12.971 19.9 12.408 L 14.788 7.879 C 14.405 7.542 14.373 6.957 14.71 6.578 C 15.047 6.196 15.633 6.163 16.011 6.5 L 21.229 11.126 C 21.307 11.195 21.367 11.273 21.418 11.361 C 21.658 11.785 22.027 12.168 22.414 12.574 L 25.192 15.475 C 25.542 15.844 25.533 16.425 25.164 16.78 C 24.984 16.951 24.758 17.038 24.527 17.038 Z" fill="rgb(0,0,0)"></path><path d="M 12.874 21.48 C 12.712 21.48 12.546 21.47 12.385 21.452 C 11.393 21.332 10.567 20.862 10.12 20.156 C 9.82 19.686 9.677 19.104 9.69 18.427 C 9.741 15.918 11.983 13.736 14.502 13.759 C 14.779 13.759 15.028 13.888 15.194 14.082 C 15.254 14.105 15.319 14.133 15.374 14.17 C 16.92 15.143 17.547 17.324 16.781 19.031 C 16.117 20.502 14.525 21.48 12.874 21.48 Z M 14.239 15.613 C 12.846 15.742 11.564 17.057 11.536 18.459 C 11.531 18.763 11.577 19.008 11.679 19.164 C 11.827 19.395 12.173 19.566 12.602 19.616 C 13.626 19.741 14.696 19.16 15.098 18.27 C 15.494 17.384 15.171 16.222 14.392 15.724 C 14.336 15.687 14.286 15.65 14.244 15.609 Z" fill="rgb(0,0,0)"></path><path d="M 2.203 31.824 C 1.718 31.824 1.289 31.524 1.142 31.077 C 1.05 30.791 1.1 30.482 1.276 30.238 C 3.942 26.645 6.996 23.315 10.346 20.345 C 10.729 20.008 11.31 20.041 11.647 20.423 C 11.983 20.806 11.951 21.387 11.568 21.724 C 8.542 24.408 5.764 27.392 3.305 30.607 C 3.324 30.713 3.324 30.819 3.305 30.929 C 3.218 31.418 2.793 31.787 2.277 31.824 C 2.249 31.824 2.221 31.824 2.198 31.824 Z" fill="rgb(0,0,0)"></path></svg>