<svg xmlns="http://www.w3.org/2000/svg" width="32" height="33"><path d="M 30.887 12.447 L 22.95 9.498 C 16.198 6.987 9.215 4.394 3.118 0.424 C 2.681 0.14 2.145 0.131 1.714 0.354 C 1.588 0.357 1.461 0.377 1.336 0.415 C 0.591 0.644 0.176 1.437 0.405 2.188 C 3.309 11.766 5.472 21.652 6.828 31.576 C 6.893 32.048 7.189 32.455 7.616 32.662 C 8.042 32.868 8.544 32.844 8.947 32.599 C 9.269 32.403 9.574 32.191 9.866 31.967 C 11.191 30.948 12.229 29.661 13.236 28.413 C 13.535 28.042 13.833 27.672 14.138 27.312 C 15.434 25.78 16.872 24.399 18.409 23.13 C 19.284 24.218 20.143 25.31 20.995 26.388 L 25.712 32.368 C 26.19 32.973 27.058 33.08 27.666 32.612 C 27.673 32.607 27.682 32.6 27.689 32.594 C 28.298 32.106 28.397 31.214 27.913 30.6 L 23.196 24.62 C 22.357 23.555 21.507 22.479 20.644 21.402 C 23.936 19.009 27.544 16.996 31.083 15.019 C 31.564 14.753 31.846 14.223 31.803 13.67 C 31.761 13.118 31.404 12.638 30.887 12.447 Z" fill="rgb(255, 104, 10)"></path></svg>